<svg width="151" height="37" viewBox="0 0 151 37" fill="none" xmlns="http://www.w3.org/2000/svg">
<g clip-path="url(#clip0_5857_1520)">
<path d="M128.519 36.6878C124.284 36.6878 120.68 35.2211 117.704 32.2848C114.728 29.3486 113.26 25.745 113.26 21.4255C113.26 17.1059 114.725 13.5023 117.704 10.5661C120.68 7.62984 124.284 6.16309 128.519 6.16309C132.754 6.16309 136.355 7.62984 139.332 10.5661C142.308 13.5023 143.776 17.1059 143.776 21.4255C143.776 25.745 142.311 29.3513 139.332 32.2848C136.355 35.2184 132.751 36.6878 128.519 36.6878ZM128.519 30.148C130.949 30.148 132.963 29.3513 134.597 27.715C136.233 26.0814 137.07 23.9849 137.07 21.4255C137.07 18.866 136.233 16.7722 134.597 15.1359C132.963 13.5023 130.952 12.7056 128.519 12.7056C126.086 12.7056 124.034 13.5023 122.398 15.1359C120.764 16.7722 119.968 18.8687 119.968 21.4255C119.968 23.9822 120.764 26.0814 122.398 27.715C124.031 29.3486 126.086 30.148 128.519 30.148Z" fill="white"/>
<path d="M33.9573 6.47266V36.6879H27.1865V6.47266H33.9573Z" fill="white"/>
<path d="M103.002 0.46582V6.82805V30.3258V36.688H109.794V30.3258V6.82805V0.46582H103.002Z" fill="white"/>
<path d="M51.747 13.0151C49.5889 13.0151 47.8547 13.6476 46.5474 14.9152C45.24 16.1828 44.5849 17.8756 44.5849 19.9937V36.6878H37.7354V19.9937C37.7354 17.9994 38.0887 16.1532 38.7927 14.4496C39.4994 12.746 40.4752 11.2846 41.7201 10.0574C42.9649 8.83286 44.4381 7.87744 46.1424 7.19116C47.8439 6.50488 49.7112 6.16309 51.747 6.16309C53.7829 6.16309 55.6502 6.50488 57.3517 7.19116C59.0532 7.87744 60.5264 8.83286 61.774 10.0574C63.0189 11.2819 63.9838 12.746 64.6688 14.4496C65.3537 16.1532 65.6962 17.9994 65.6962 19.9937V36.6878H58.8466V19.9937C58.8466 17.8756 58.2025 16.1828 56.9168 14.9152C55.6284 13.6476 53.9052 13.0151 51.747 13.0151Z" fill="white"/>
<path d="M146.967 5.9668C147.951 5.9668 148.78 6.30321 149.457 6.97065C150.133 7.64079 150.47 8.46163 150.47 9.43588C150.47 10.4101 150.131 11.2148 149.457 11.8554C148.78 12.4932 147.951 12.8135 146.967 12.8135C145.983 12.8135 145.17 12.4932 144.523 11.8554C143.879 11.2175 143.556 10.4101 143.556 9.43588C143.556 8.46163 143.879 7.64079 144.523 6.97065C145.167 6.30052 145.983 5.9668 146.967 5.9668Z" fill="#00909B"/>
<path d="M99.5329 21.4311C99.5329 22.3784 99.4568 23.2935 99.3155 24.1627C99.2041 24.8275 99.0627 25.4788 98.8643 26.1112C98.1603 28.4285 96.8855 30.4873 95.04 32.2932C92.0392 35.2213 88.3916 36.6907 84.116 36.6907C79.8405 36.6907 76.2037 35.2213 73.1921 32.2932C72.1048 31.2274 71.2133 30.0755 70.5338 28.8321C69.3134 26.6468 68.71 24.187 68.71 21.4338C68.71 20.7905 68.7426 20.1715 68.8078 19.5741C69.1802 16.07 70.6316 13.0665 73.1921 10.5744C76.2037 7.63547 79.8405 6.16602 84.116 6.16602C88.3916 6.16602 92.0392 7.63547 95.04 10.5744C95.4341 10.9538 95.7983 11.3468 96.1272 11.7478L90.5551 15.4698C90.4682 15.3595 90.3703 15.2518 90.2589 15.1415C88.609 13.4998 86.5759 12.7059 84.116 12.7059C81.6562 12.7059 79.5877 13.4998 77.9378 15.1415C76.6957 16.3607 75.9373 17.8301 75.6411 19.5714C75.5296 20.1581 75.4753 20.7798 75.4753 21.4311C75.4753 22.7686 75.6954 23.9905 76.1466 25.0778C76.5516 26.0574 77.1469 26.9375 77.9378 27.7206C79.5877 29.3543 81.6643 30.1482 84.116 30.1482C86.5677 30.1482 88.609 29.3543 90.2589 27.7206C90.7536 27.2308 91.1803 26.6872 91.5228 26.1086H84.4558V19.6414H99.4432C99.5058 20.2173 99.5329 20.8121 99.5329 21.4311Z" fill="white"/>
<path d="M24.2726 27.7796C24.2726 29.1764 24.0035 30.4386 23.4627 31.5663C22.9218 32.6966 22.1498 33.6547 21.1441 34.4406C20.1384 35.2264 18.9316 35.8374 17.5209 36.268C16.1103 36.6986 14.5365 36.9139 12.7969 36.9139C10.8752 36.9139 9.14382 36.677 7.59996 36.2007C6.05609 35.7243 4.74326 35.0488 3.66146 34.1741C2.58239 33.2968 1.75609 32.2283 1.1853 30.9661C0.6145 29.7039 0.329102 28.299 0.329102 26.7542H6.6296C6.6296 28.1214 7.17594 29.1899 8.27132 29.9623C9.36671 30.7347 10.8725 31.1222 12.7942 31.1222C14.3544 31.1222 15.5993 30.8396 16.5288 30.2744C17.4584 29.7093 17.9232 28.953 17.9232 28.0003C17.9232 27.0476 17.4883 26.329 16.6185 25.7504C15.7487 25.1717 14.2783 24.6738 12.2071 24.2567C8.48605 23.4843 5.76525 22.3486 4.03928 20.8468C2.3133 19.3478 1.45167 17.4369 1.45167 15.1197C1.45167 13.7822 1.71532 12.5657 2.23991 11.4649C2.7645 10.3669 3.5011 9.42225 4.44427 8.63639C5.39016 7.85053 6.52903 7.23961 7.86361 6.809C9.19818 6.37839 10.6605 6.16309 12.2506 6.16309C13.8407 6.16309 15.303 6.38646 16.6376 6.83053C17.9721 7.27459 19.1192 7.90705 20.0814 8.7252C21.0408 9.54336 21.791 10.5068 22.3319 11.621C22.8728 12.7352 23.1419 13.9598 23.1419 15.2974H16.8414C16.8414 14.3473 16.4065 13.5588 15.5367 12.9371C14.667 12.3127 13.558 12.0005 12.2071 12.0005C10.8562 12.0005 9.74724 12.2374 8.96715 12.7137C8.18706 13.1901 7.79566 13.8441 7.79566 14.673C7.79566 15.5019 8.26045 16.2393 9.19003 16.791C10.1196 17.3401 11.6961 17.8676 13.9168 18.3735C17.5155 19.1755 20.1412 20.3274 21.791 21.8265C23.4409 23.3282 24.2672 25.309 24.2672 27.7769L24.2726 27.7796Z" fill="white"/>
</g>
<defs>
<clipPath id="clip0_5857_1520">
<rect width="151" height="37" fill="white"/>
</clipPath>
</defs>
</svg>
